# xmcd
#
# Track frame offsets:
#	150
#	17656
#	35900
#	53570
#	94509
#	129910
#	145517
#	170952
#	200774
#	234056
#	273672
#
# Disc length: 3857 seconds
#
# Revision: 0
# Processed by: cddbd v1.5.1PL0 Copyright (c) Steve Scherf et al.
# Submitted via: audiograbber 1.83.01
#
DISCID=930f0f0b
DTITLE=Blaat - Dance
DYEAR=1900
DGENRE=Dance
TTITLE0=4 Clubbers - Together (radio)
TTITLE1= Looking back over my shoulder (house mix)
TTITLE2=Mark Oh - Stuck on you (radio)
TTITLE3=Kings of tomorrow - thru (junior jack remix)
TTITLE4=4 Clubbers - Together (extended)
TTITLE5=Glamorama - Girls just wanna have fun (radio)
TTITLE6=Glamorama - Girls just wanna have fun (extended)
TTITLE7=Armand van Helden - My My My (We Deliver Mix)
TTITLE8=Bobby Blanco and Miki Moto - 3am
TTITLE9=Crystal waters - Gypsy Woman (White Label 2003 Mix)
TTITLE10=Four tops - Loco in Acapulco
EXTD=
EXTT0=
EXTT1=
EXTT2=
EXTT3=
EXTT4=
EXTT5=
EXTT6=
EXTT7=
EXTT8=
EXTT9=
EXTT10=
PLAYORDER=
